<svg viewBox="0 0 162 45" fill="none" xmlns="http://www.w3.org/2000/svg">
	<path fill-rule="evenodd" clip-rule="evenodd" d="M160.537 30.5641C159.524 29.1829 157.9 28.4478 156.194 28.4404C154.496 28.4404 152.872 29.1755 151.852 30.5641C151.152 31.522 150.817 32.7249 150.817 33.9055C150.817 35.0862 151.144 36.2891 151.852 37.2395C152.865 38.6207 154.489 39.3558 156.194 39.3632C157.893 39.3632 159.516 38.6281 160.537 37.2395C161.237 36.2817 161.572 35.0787 161.572 33.9055C161.572 32.7323 161.245 31.522 160.537 30.5641ZM158.816 35.153C158.422 36.3262 157.49 37.2618 156.194 37.2692C154.898 37.2692 153.967 36.3262 153.573 35.153C153.446 34.7817 153.364 34.3213 153.364 33.8981C153.364 33.4748 153.446 33.0145 153.573 32.6432C153.967 31.47 154.898 30.5344 156.194 30.527C157.49 30.5344 158.422 31.47 158.816 32.6432C158.943 33.0145 159.025 33.4748 159.025 33.8981C159.025 34.3213 158.943 34.7817 158.816 35.153Z" fill="#FF5A00"/>
	<path d="M119.302 39.0885C119.302 39.2593 119.161 39.4003 118.989 39.4003H117.187C117.015 39.4003 116.874 39.2593 116.874 39.0885V24.3119C116.874 24.1411 117.015 24 117.187 24H118.989C119.161 24 119.302 24.1411 119.302 24.3119V39.0885Z" fill="#FF5A00"/>
	<path d="M115.064 39.0885C115.064 39.2593 114.922 39.4003 114.751 39.4003H112.949C112.777 39.4003 112.636 39.2593 112.636 39.0885V24.3119C112.636 24.1411 112.777 24 112.949 24H114.751C114.922 24 115.064 24.1411 115.064 24.3119V39.0885Z" fill="#FF5A00"/>
	<path d="M150.414 29.079V30.3413C150.414 30.6235 150.236 30.7497 149.99 30.6977C147.949 30.2819 146.698 31.1804 146.698 33.059V39.0885C146.698 39.2593 146.556 39.4003 146.385 39.4003H144.582C144.411 39.4003 144.269 39.2593 144.269 39.0885V32.8957C144.269 31.2843 145.007 30.3562 145.595 29.7696C146.4 28.9676 147.577 28.4404 148.895 28.4404C149.089 28.4404 149.811 28.4701 150.146 28.5592C150.385 28.626 150.414 28.7523 150.414 29.079Z" fill="#FF5A00"/>
	<path fill-rule="evenodd" clip-rule="evenodd" d="M142.698 33.9055C142.698 32.7175 142.378 31.5442 141.662 30.5641C140.649 29.1829 139.026 28.4478 137.32 28.4404C135.622 28.4404 133.998 29.1755 132.978 30.5641C131.592 32.4576 131.585 35.3461 132.978 37.2395C133.998 38.6207 135.614 39.3558 137.32 39.3632C138.43 39.3632 139.51 39.0439 140.411 38.435V39.7568C140.411 41.5463 138.839 41.873 137.834 41.9398C137.156 41.9844 136.195 41.8879 135.763 41.8285C135.488 41.7839 135.294 41.8285 135.294 42.1255V43.7145C135.294 43.8333 135.383 43.9596 135.577 43.9744C137.908 44.1749 139.48 44.1303 140.672 43.462C141.513 42.9868 142.094 42.1997 142.4 41.279C142.616 40.6181 142.698 39.8013 142.698 39.0959V33.9055ZM137.327 37.2767C136.031 37.2767 135.1 36.3336 134.706 35.1604C134.579 34.7891 134.497 34.3288 134.497 33.9055C134.497 33.4823 134.579 33.0219 134.706 32.6506C135.1 31.4774 136.031 30.5344 137.327 30.5344C140.225 30.5344 140.322 33.4823 140.322 33.9055C140.322 34.3288 140.225 37.2767 137.327 37.2767Z" fill="#FF5A00"/>
	<path fill-rule="evenodd" clip-rule="evenodd" d="M110.99 32.8214C110.99 31.3957 110.669 30.2968 109.984 29.5691C109.269 28.8117 107.913 28.4478 106.632 28.4478C105.351 28.4478 104.048 28.7745 102.96 29.4206C102.886 29.4651 102.848 29.5394 102.848 29.621V29.6359C102.848 29.6359 102.945 31.2027 102.945 31.2101C102.96 31.4254 103.213 31.4923 103.407 31.3734C104.979 30.3933 106.863 30.2151 107.817 30.6977C108.487 31.0319 108.666 31.7447 108.666 32.2051V32.4353H106.036C104.912 32.4353 101.456 32.8363 101.456 36.0218V36.0737C101.456 37.1579 101.828 38.0341 102.573 38.6132C103.266 39.1553 104.204 39.4078 105.373 39.4078H110.677C110.848 39.4078 110.99 39.2667 110.99 39.0959V32.8214ZM108.673 37.4549H105.537C105.12 37.4252 104.755 37.3212 104.428 37.0688C104.07 36.794 103.906 36.4673 103.906 36.044C103.906 35.4797 104.286 34.351 106.193 34.351H108.681V37.4623L108.673 37.4549Z" fill="#FF5A00"/>
	<path fill-rule="evenodd" clip-rule="evenodd" d="M125.939 28.4478C122.736 28.4478 121.343 30.5938 120.881 32.4056C120.755 32.8882 120.695 33.408 120.695 33.9055C120.695 35.0787 121.023 36.2891 121.73 37.2395C122.751 38.6207 124.367 39.2964 126.073 39.3632C127.801 39.43 128.963 39.133 129.827 38.6355C129.998 38.539 130.035 38.4202 130.035 38.1083V36.7123C130.035 36.4302 129.864 36.2965 129.596 36.4673C128.665 37.0613 127.54 37.4252 126.11 37.3138C124.672 37.2024 123.481 36.1926 123.362 34.7669H130.482C130.639 34.7669 130.765 34.6481 130.773 34.4773C130.892 32.5392 130.333 28.4553 125.946 28.4553L125.939 28.4478ZM123.376 32.8363C123.376 32.0417 124.039 30.5344 125.939 30.5344C126.989 30.5344 128.218 31.1358 128.218 32.8363H123.376Z" fill="#FF5A00"/>
	<path fill-rule="evenodd" clip-rule="evenodd" d="M88.4878 33.8008C89.1879 33.8008 89.7391 34.0385 90.1265 34.5211C90.5138 34.9963 90.7074 35.6795 90.7074 36.5482C90.7074 37.417 90.5138 38.1002 90.119 38.5902C89.7242 39.0729 89.1805 39.3179 88.4878 39.3179C88.1377 39.3179 87.8249 39.2511 87.5344 39.1249C87.2439 38.9986 87.0055 38.7981 86.8119 38.5308H86.7523L86.581 39.214H86V31.6475H86.8119V33.489C86.8119 33.8974 86.797 34.2686 86.7746 34.5954H86.8119C87.1918 34.0607 87.7504 33.8008 88.4878 33.8008ZM88.3686 34.4765C87.8174 34.4765 87.4152 34.6325 87.1769 34.9518C86.9311 35.2711 86.8119 35.7983 86.8119 36.5482C86.8119 37.2982 86.9385 37.8328 87.1843 38.1521C87.4376 38.4714 87.8398 38.6348 88.391 38.6348C88.89 38.6348 89.2624 38.4566 89.5008 38.0927C89.7466 37.7289 89.8658 37.2091 89.8658 36.5334C89.8658 35.8577 89.7466 35.323 89.5008 34.9815C89.255 34.6399 88.8826 34.4691 88.3686 34.4691V34.4765Z" fill="#FF5A00"/>
	<path d="M92.1451 33.8818H91.296L93.4486 39.243L93.1507 40.0004C92.9123 40.6241 92.5176 40.936 91.9589 40.936C91.7355 40.936 91.5344 40.9137 91.3556 40.8766V41.5226C91.594 41.5746 91.8398 41.6043 92.0856 41.6043C92.525 41.6043 92.8974 41.4781 93.2028 41.2256C93.5082 40.9731 93.7689 40.5499 93.9998 39.9484L96.294 33.8818H95.4225C94.6702 35.9387 94.2307 37.1713 94.0967 37.5723C93.9626 37.9732 93.8732 38.2554 93.8285 38.4188H93.7913C93.7317 38.1143 93.5678 37.6094 93.3146 36.9188L92.1451 33.8818Z" fill="#FF5A00"/>
	<path fill-rule="evenodd" clip-rule="evenodd" d="M52.2259 9.1584C51.6764 9.1584 50.4935 9.45953 50.0742 11.0103L48.0076 18.6929C47.9536 18.8936 47.7319 19.0703 47.5298 19.0703H44.1774C43.9785 19.0703 43.8483 18.8936 43.9023 18.6929L45.9708 11.0103C46.3907 9.45953 45.3698 9.1584 44.8184 9.1584C44.2676 9.1584 43.0872 9.45953 42.6679 11.0103L40.6007 18.6929C40.5473 18.8936 40.3243 19.0703 40.1261 19.0703H36.7705C36.571 19.0703 36.4408 18.8936 36.496 18.6929L39.9184 5.98002C39.9724 5.77991 40.1947 5.6052 40.3936 5.6052H43.6488C43.8483 5.6052 43.976 5.77991 43.9239 5.98002L43.7143 6.75762C45.1519 5.77991 46.2415 5.45464 47.1925 5.45464C48.4427 5.45464 49.3442 5.82946 50.0882 6.88087C51.6783 5.80659 52.8218 5.45464 54.2754 5.45464C57.2784 5.45464 58.4194 7.53141 57.631 10.4595L55.4151 18.6929C55.3617 18.8936 55.1375 19.0703 54.9393 19.0703H51.5843C51.3848 19.0703 51.2577 18.8936 51.3092 18.6929L53.3803 11.0103C53.7983 9.45953 52.7774 9.1584 52.2259 9.1584ZM65.479 0C66.8538 0 67.6771 1.12574 67.3055 2.50179C66.9357 3.87784 65.5063 5.00421 64.1309 5.00421C62.7548 5.00421 61.9315 3.87784 62.3006 2.50179C62.6729 1.12574 64.1017 0 65.479 0ZM62.1513 6.13059H65.5044C65.7039 6.13059 65.8316 6.30656 65.7788 6.50541L62.4976 18.6929C62.4436 18.8936 62.2206 19.0684 62.0224 19.0684H58.668C58.4672 19.0684 58.3396 18.8936 58.3942 18.6929L61.6736 6.50541C61.7282 6.30656 61.9506 6.13059 62.1513 6.13059ZM81.3303 9.1584C80.7808 9.1584 79.5979 9.45953 79.1811 11.0103L77.1114 18.6929C77.058 18.8936 76.835 19.0703 76.6342 19.0703H73.2812C73.0823 19.0703 72.9546 18.8936 73.0061 18.6929L75.0752 11.0103C75.4933 9.45953 74.4723 9.1584 73.9241 9.1584C73.372 9.1584 72.1904 9.45953 71.7717 11.0103L69.7051 18.6929C69.6511 18.8936 69.4294 19.0703 69.2267 19.0703H65.8743C65.6729 19.0703 65.5452 18.8936 65.5992 18.6929L69.0228 5.98002C69.0755 5.77991 69.2991 5.6052 69.5005 5.6052H72.7539C72.9521 5.6052 73.0798 5.77991 73.0258 5.98002L72.8193 6.75762C74.2557 5.77991 75.3459 5.45464 76.2975 5.45464C77.5465 5.45464 78.4461 5.82946 79.1894 6.88087C80.7834 5.80659 81.9262 5.45464 83.3792 5.45464C86.3835 5.45464 87.5245 7.53141 86.738 10.4595L84.5189 18.6929C84.4655 18.8936 84.2425 19.0703 84.0437 19.0703H80.69C80.4892 19.0703 80.3628 18.8936 80.4155 18.6929L82.4821 11.0103C82.9021 9.45953 81.8811 9.1584 81.3303 9.1584ZM92.8376 12.3368C92.4799 13.6626 91.9056 15.5145 93.6838 15.5145C95.46 15.5145 95.8838 13.6626 96.2408 12.3368C96.5979 11.0103 97.1709 9.1584 95.3927 9.1584C93.6183 9.1584 93.1946 11.0103 92.8376 12.3368ZM88.8219 17.4922C88.0258 16.2667 88.0195 14.9904 88.7323 12.3368C89.4387 9.7092 90.142 8.40812 91.5968 7.182C92.6292 6.33071 94.2155 5.45527 96.3927 5.45527C98.5692 5.45527 99.6854 6.33071 100.256 7.182C101.054 8.40812 101.054 9.7092 100.344 12.3368C99.6307 14.9904 98.9364 16.2667 97.4796 17.4922C96.4511 18.3422 94.8641 19.2183 92.6876 19.2183C90.5105 19.2183 89.3936 18.3422 88.8219 17.4922ZM104.53 18.8181L103.274 6.1046C103.248 5.82952 103.458 5.60526 103.783 5.60526H107.264C107.389 5.60526 107.546 5.75583 107.546 5.85557L107.885 12.5871L111.825 5.85557C111.876 5.75583 112.116 5.60526 112.243 5.60526H115.72C116.047 5.60526 116.135 5.82952 115.961 6.1046L107.859 18.8181C107.782 18.9191 107.541 19.0697 107.442 19.0697H104.813C104.714 19.0697 104.554 18.9191 104.53 18.8181ZM120.472 11.0103L118.403 18.693C118.35 18.8937 118.127 19.0684 117.927 19.0684H114.573C114.373 19.0684 114.246 18.8937 114.297 18.693L117.72 5.98009C117.777 5.77997 117.998 5.60526 118.198 5.60526H121.452C121.651 5.60526 121.78 5.77997 121.726 5.98009L121.517 6.75769C122.747 5.90576 123.869 5.45533 125.045 5.45533C126.222 5.45533 127.006 5.70437 127.635 6.42987C128.176 7.0315 124.223 10.1845 123.725 9.60889C123.469 9.35795 123.172 9.15846 122.625 9.15846C122.07 9.15846 120.883 9.48437 120.472 11.0103ZM128.824 14.8389C129.639 15.7143 130.909 15.741 131.609 15.741C132.06 15.741 133.429 15.4901 133.598 14.8643C133.699 14.4888 133.63 14.0892 132.85 14.0136C130.147 13.7386 126.935 13.764 127.975 9.909C128.777 6.93265 131.851 5.45495 134.528 5.45495C136.555 5.45495 138.159 5.73004 139.164 6.83163C139.666 7.38116 136.471 9.85945 135.984 9.4338C135.443 8.93382 134.471 8.83345 133.544 8.83345C132.544 8.83345 132.088 9.30865 132.008 9.60914C131.868 10.1345 132.147 10.3105 132.683 10.3594C135.438 10.6351 138.693 10.8092 137.655 14.6648C136.8 17.8426 133.728 19.2186 130.599 19.2186C128.673 19.2186 126.822 19.1176 125.469 17.5433C124.999 16.9665 128.36 14.3383 128.824 14.8389ZM141.631 9.28438H140.779C140.581 9.28438 140.451 9.10904 140.507 8.90701L141.153 6.5056C141.205 6.30548 141.428 6.13078 141.63 6.13078H142.481L143.418 2.65191C143.471 2.45243 143.695 2.27708 143.893 2.27708H147.246C147.446 2.27708 147.574 2.45243 147.52 2.65191L146.585 6.13078H148.335C148.536 6.13078 148.663 6.30548 148.609 6.5056L147.964 8.90701C147.91 9.10904 147.687 9.28438 147.486 9.28438H145.735L144.254 14.7886C144.111 15.3152 144.306 15.6144 144.856 15.6144H145.782C145.983 15.6144 146.111 15.7904 146.057 15.9905L145.327 18.6931C145.274 18.8938 145.054 19.0698 144.853 19.0698H143.177C140.197 19.0698 139.568 16.9416 140.068 15.0903L141.631 9.28438ZM153.399 10.9353H157.403C157.675 9.73518 157.343 8.83307 155.967 8.83307C154.59 8.83307 153.773 9.73518 153.399 10.9353ZM157.238 14.8906C157.957 14.3639 159.755 16.7895 159 17.3676C157.375 18.5677 155.872 19.2195 153.546 19.2195C150.569 19.2195 147.43 18.1427 148.993 12.3367C150.178 7.93285 153.348 5.45521 156.878 5.45521C160.78 5.45521 162.166 8.30831 161.214 11.8367L160.826 13.289C160.77 13.4885 160.547 13.6626 160.347 13.6626H152.689C152.463 14.9656 153.1 15.766 154.475 15.766C155.753 15.766 156.464 15.4395 157.238 14.8906Z" fill="#0078BE"/>
	<path fill-rule="evenodd" clip-rule="evenodd" d="M9.42102 10.06C10.2463 9.52192 11.1344 8.37839 11.8085 7.05062C12.3192 6.03987 12.7068 4.92493 12.8484 3.89258C13.1743 1.50451 11.9755 1.07695 10.4311 2.66392C9.11798 4.01646 7.98652 6.42359 7.74257 8.20876C7.49925 9.99013 8.18156 10.8656 9.42102 10.06ZM18.1176 10.8834C19.5285 10.208 21.0679 8.87519 22.3092 7.31999C23.5461 5.76161 24.4896 3.97961 24.7017 2.40662C24.7977 1.70843 24.7348 1.17606 24.5423 0.799964C23.8727 -0.519541 21.6479 0.0750939 19.3151 2.12392C16.995 4.16321 15.2524 7.09636 14.9849 9.05879C14.7168 11.0225 15.936 11.9278 18.1176 10.8834ZM36.1828 4.97893C35.2686 4.32648 32.1112 4.87919 27.5758 7.84982C27.3071 8.02516 27.0492 8.20241 26.8008 8.38283C26.6667 8.48067 26.478 8.66935 26.9215 8.91839C27.4932 9.24175 28.011 9.62992 27.5955 9.99966C23.6008 13.5338 21.0831 15.9956 16.5941 18.5024C14.0009 19.9331 11.4597 20.9343 9.88161 21.5125C7.43572 22.4076 5.53111 22.5162 4.33485 22.041C3.06617 21.5417 2.4169 20.6402 2.08782 19.5183C1.78669 18.4694 1.76572 17.2414 1.79495 15.981C1.81401 15.0757 2.08782 13.7638 2.31335 12.9798C2.55603 12.1393 3.36222 10.6095 3.05728 10.5378C2.75297 10.466 1.93789 11.6292 1.58339 12.2594C1.26702 12.8216 0.688264 14.2885 0.597417 14.6074C-0.696677 19.1778 0.138735 22.717 2.83619 24.781C3.51278 25.3001 4.33422 25.7092 5.32146 25.9773C7.27182 26.5052 9.8816 26.483 13.1705 25.6006C13.5542 25.4996 15.5427 24.8179 16.1367 24.5949C24.8879 21.3181 31.2929 13.3654 32.0661 12.7105C32.5216 12.3255 32.6836 12.7016 33.3316 13.1463C33.8817 13.5008 33.972 13.3203 34.1613 13.0497C34.4802 12.598 34.7299 12.3261 34.9459 11.8522C36.6186 8.18081 36.9705 5.54116 36.1828 4.97893Z" fill="#FFD343"/>
</svg>
